<svg width="21" height="22" viewBox="0 0 21 22" fill="none" xmlns="http://www.w3.org/2000/svg">
<path d="M11.2303 21.419L9.72265 19.8891L11.2303 18.3592L12.7379 19.8891L11.2303 21.419ZM7.76273 19.8891L6.70738 18.8181L9.6724 15.8093L10.7277 16.8802L7.76273 19.8891ZM14.2456 18.3592L12.7379 16.8292L14.2456 15.2993L15.7532 16.8292L14.2456 18.3592ZM5.19975 18.3592L3.69212 16.8292L5.19975 15.2993L6.70738 16.8292L5.19975 18.3592ZM6.20484 14.2793C4.68045 14.2793 3.37786 13.7309 2.29705 12.6342C1.21625 11.5374 0.67618 10.2158 0.67685 8.6696C0.67685 7.25867 1.13752 6.02622 2.05885 4.97227C2.98018 3.91832 4.11928 3.29785 5.47615 3.11086C6.0122 2.1419 6.74524 1.38102 7.67528 0.828203C8.60533 0.275389 9.62281 -0.000678716 10.7277 1.25301e-06C12.2354 1.25301e-06 13.5463 0.488899 14.6607 1.46669C15.775 2.44449 16.449 3.66401 16.6829 5.12527C17.8387 5.22726 18.8103 5.71174 19.5976 6.5787C20.385 7.44566 20.7786 8.48261 20.7786 9.68955C20.7786 10.9645 20.3391 12.0484 19.46 12.9412C18.5808 13.834 17.5128 14.28 16.2557 14.2793H6.20484Z" fill="white"/>
</svg>
